<?xml version="1.0" encoding="UTF-8"?>
<svg id="Layer_2" data-name="Layer 2" xmlns="http://www.w3.org/2000/svg" viewBox="0 0 928.57 241.13">
  <defs>
    <style>
      .cls-1 {
        fill-rule: evenodd;
      }
    </style>
  </defs>
  <g id="Layer_2-2" data-name="Layer 2">
    <polygon class="cls-1" points="0 240.45 80.2 240.45 96.57 196.19 59.74 120.79 0 240.45"/>
    <polygon class="cls-1" points="123.57 1.12 96.57 62.6 180.86 240.45 241.58 240.45 212.77 180.62 123.57 1.12"/>
    <path class="cls-1" d="m361.8,0c-66.4,0-120.23,53.83-120.23,120.23s53.83,120.23,120.23,120.23,120.23-53.83,120.23-120.23S428.2,0,361.8,0Zm0,193.26c-40.34,0-73.03-32.7-73.03-73.03s32.7-73.03,73.03-73.03,73.03,32.7,73.03,73.03-32.7,73.03-73.03,73.03Z"/>
    <path class="cls-1" d="m621.45,0c-66.4,0-120.23,53.83-120.23,120.23s53.83,120.23,120.23,120.23,120.23-53.83,120.23-120.23S687.85,0,621.45,0Zm0,193.26c-40.34,0-73.03-32.7-73.03-73.03s32.7-73.03,73.03-73.03,73.03,32.7,73.03,73.03-32.7,73.03-73.03,73.03Z"/>
    <path d="m842.81,241.13c-18.54,0-34.49-3.2-47.85-9.6-13.36-6.4-25.44-16.11-36.26-29.14l29.8-29.8c7.06,9.05,15.07,16.06,24.01,21.03,8.94,4.97,19.92,7.45,32.95,7.45,11.7,0,20.97-2.32,27.81-6.95,6.84-4.64,10.26-11.04,10.26-19.21,0-7.06-1.99-12.8-5.96-17.22-3.97-4.41-9.22-8.11-15.73-11.09-6.51-2.98-13.69-5.74-21.52-8.28-7.84-2.54-15.62-5.46-23.34-8.78-7.73-3.31-14.9-7.5-21.52-12.58-6.62-5.08-11.87-11.48-15.73-19.21-3.86-7.72-5.79-17.66-5.79-29.8,0-14.12,3.42-26.16,10.26-36.09,6.84-9.93,16.23-17.55,28.15-22.85,11.92-5.3,25.38-7.95,40.4-7.95,15.89,0,30.3,2.98,43.21,8.94,12.91,5.96,23.34,13.69,31.29,23.18l-29.8,29.8c-6.84-7.5-13.86-13.02-21.03-16.56-7.18-3.53-15.29-5.3-24.34-5.3-10.38,0-18.54,2.04-24.5,6.12-5.96,4.09-8.94,9.77-8.94,17.05,0,6.41,1.99,11.54,5.96,15.4,3.97,3.86,9.21,7.28,15.73,10.26,6.51,2.98,13.74,5.79,21.69,8.44,7.95,2.65,15.78,5.69,23.51,9.11,7.72,3.43,14.84,7.73,21.36,12.91,6.51,5.19,11.75,11.92,15.73,20.2s5.96,18.49,5.96,30.63c0,21.64-7.62,38.69-22.85,51.16-15.23,12.47-36.21,18.71-62.91,18.71Z"/>
  </g>
</svg>