<?xml version="1.0" encoding="UTF-8"?>
<svg xmlns="http://www.w3.org/2000/svg" xmlns:xlink="http://www.w3.org/1999/xlink" viewBox="0 0 657.07 389.93">
  <defs>
    <style>
      .cls-1 {
        isolation: isolate;
      }

      .cls-1, .cls-2, .cls-3, .cls-4, .cls-5 {
        fill: none;
      }

      .cls-6 {
        fill: #e9ecf2;
      }

      .cls-7 {
        fill: #fff;
      }

      .cls-8 {
        fill: #fff176;
      }

      .cls-9 {
        fill: #8eafbc;
      }

      .cls-10 {
        fill: #b39ddb;
      }

      .cls-11 {
        fill: #c0def2;
      }

      .cls-12 {
        fill: #cfd8dc;
      }

      .cls-13 {
        fill: #dd9272;
      }

      .cls-14 {
        fill: #0591ff;
      }

      .cls-15 {
        fill: #3f0600;
      }

      .cls-16 {
        fill: #9575cd;
      }

      .cls-17 {
        fill: #473f51;
      }

      .cls-18 {
        fill: #263238;
      }

      .cls-19 {
        fill: #78909c;
      }

      .cls-20, .cls-21 {
        fill: #75d3c7;
      }

      .cls-22 {
        fill: #4fc3f7;
      }

      .cls-23 {
        fill: url(#linear-gradient-2);
      }

      .cls-23, .cls-21, .cls-5, .cls-24 {
        mix-blend-mode: multiply;
      }

      .cls-2 {
        stroke: #546e7a;
      }

      .cls-2, .cls-3 {
        stroke-linecap: round;
      }

      .cls-2, .cls-3, .cls-4 {
        stroke-miterlimit: 10;
      }

      .cls-3 {
        stroke: #3f0600;
      }

      .cls-4 {
        stroke: #fff;
        stroke-width: 2px;
      }

      .cls-24 {
        fill: url(#linear-gradient);
      }
    </style>
    <linearGradient id="linear-gradient" x1="609.32" y1="320.54" x2="609.32" y2="329.7" gradientUnits="userSpaceOnUse">
      <stop offset="0" stop-color="#a06053"/>
      <stop offset=".12" stop-color="#a36354" stop-opacity=".94"/>
      <stop offset=".32" stop-color="#ae6b5a" stop-opacity=".77"/>
      <stop offset=".59" stop-color="#be7962" stop-opacity=".5"/>
      <stop offset=".9" stop-color="#d58b6e" stop-opacity=".12"/>
      <stop offset=".99" stop-color="#dd9272" stop-opacity="0"/>
    </linearGradient>
    <linearGradient id="linear-gradient-2" x1="583.02" y1="298.42" x2="591.86" y2="298.42" xlink:href="#linear-gradient"/>
  </defs>
  <g class="cls-1">
    <g id="Layer_2" data-name="Layer 2">
      <g id="Objects">
        <path class="cls-18" d="m489.8,363.38h-22.36c-1.53,0-2.76-.73-2.76-1.63s1.24-1.63,2.76-1.63h22.36c1.53,0,2.77.73,2.77,1.63s-1.24,1.63-2.77,1.63Zm-44.43,0h-22.07c-1.53,0-2.77-.73-2.77-1.63s1.24-1.63,2.77-1.63h22.07c1.53,0,2.76.73,2.76,1.63s-1.24,1.63-2.76,1.63Zm-44.14,0h-22.07c-1.53,0-2.76-.73-2.76-1.63s1.24-1.63,2.76-1.63h22.07c1.53,0,2.76.73,2.76,1.63s-1.24,1.63-2.76,1.63Zm-44.14,0h-22.07c-1.53,0-2.77-.73-2.77-1.63s1.24-1.63,2.77-1.63h22.07c1.53,0,2.76.73,2.76,1.63s-1.24,1.63-2.76,1.63Zm-44.14,0h-22.07c-1.53,0-2.76-.73-2.76-1.63s1.24-1.63,2.76-1.63h22.07c1.53,0,2.77.73,2.77,1.63s-1.24,1.63-2.77,1.63Zm-44.14,0h-22.07c-1.53,0-2.76-.73-2.76-1.63s1.24-1.63,2.76-1.63h22.07c1.53,0,2.77.73,2.77,1.63s-1.24,1.63-2.77,1.63Zm-44.14,0h-22.07c-1.53,0-2.76-.73-2.76-1.63s1.24-1.63,2.76-1.63h22.07c1.53,0,2.77.73,2.77,1.63s-1.24,1.63-2.77,1.63Zm-44.13-.04s-.06,0-.09,0c-7.51-.14-15.02-.65-22.35-1.52-1.5-.18-2.47-1.04-2.17-1.92.3-.89,1.77-1.45,3.26-1.28,7.02.83,14.23,1.32,21.43,1.46,1.53.03,2.73.78,2.68,1.68-.05.88-1.28,1.58-2.76,1.58Zm331.21-1.07c-1.32,0-2.49-.56-2.72-1.36-.26-.89.76-1.73,2.26-1.88,7.08-.71,14.11-1.78,20.89-3.18,1.45-.29,3.02.15,3.53,1,.5.85-.25,1.78-1.7,2.08-7.07,1.46-14.4,2.58-21.79,3.32-.16.02-.31.02-.47.02Zm-374.28-4.05c-.33,0-.67-.04-.99-.11-6.99-1.59-13.8-3.54-20.26-5.8-1.31-.46-1.75-1.46-.97-2.24.78-.78,2.48-1.03,3.79-.57,6.19,2.17,12.72,4.03,19.42,5.55,1.43.32,2.14,1.27,1.59,2.11-.42.65-1.47,1.05-2.58,1.05Zm415.73-4.51c-.97,0-1.92-.3-2.42-.84-.74-.79-.25-1.78,1.08-2.22,6.29-2.05,12.32-4.43,17.95-7.07,1.19-.56,2.94-.44,3.89.26.95.71.75,1.73-.44,2.29-5.86,2.75-12.15,5.23-18.71,7.37-.42.14-.88.2-1.34.2Zm-453.53-8.71c-.63,0-1.27-.13-1.78-.39-5.72-2.86-11.08-6.02-15.92-9.39-.99-.69-.84-1.72.32-2.3,1.17-.58,2.91-.5,3.9.19,4.64,3.24,9.78,6.27,15.27,9.01,1.16.58,1.31,1.61.33,2.3-.55.38-1.33.58-2.11.58Zm487.91-7.43c-.66,0-1.32-.14-1.85-.42-1.14-.6-1.23-1.64-.21-2.31,4.81-3.16,9.2-6.57,13.05-10.15.82-.76,2.53-.98,3.82-.5,1.29.48,1.67,1.49.85,2.25-4.01,3.73-8.59,7.29-13.61,10.58-.55.36-1.3.54-2.06.54Zm-516.28-12.36c-.94,0-1.86-.29-2.38-.8-3.83-3.81-7.14-7.83-9.82-11.95-.55-.84.16-1.79,1.59-2.11,1.42-.32,3.03.09,3.58.94,2.58,3.95,5.74,7.8,9.42,11.45.78.78.35,1.78-.97,2.24-.44.16-.93.23-1.41.23Zm539.83-9.53c-.36,0-.72-.04-1.07-.13-1.41-.35-2.07-1.31-1.48-2.14,2.79-3.91,5.03-7.99,6.66-12.12.35-.88,1.84-1.42,3.32-1.22,1.49.21,2.41,1.08,2.07,1.96-1.71,4.31-4.05,8.57-6.95,12.65-.44.62-1.47,1-2.55,1Zm-555.63-14.66c-1.29,0-2.44-.54-2.71-1.31-1.48-4.33-2.35-8.77-2.6-13.2-.05-.9,1.15-1.66,2.67-1.69,1.45-.06,2.8.68,2.85,1.58.23,4.25,1.07,8.51,2.49,12.66.3.88-.67,1.75-2.16,1.92-.18.02-.37.03-.55.03Zm565.64-10.6c-.06,0-.11,0-.17,0-1.52-.06-2.68-.83-2.59-1.73.17-1.58.25-3.21.25-4.82v-8.11c0-.9,1.24-1.63,2.77-1.63s2.77.73,2.77,1.63v8.11c0,1.68-.09,3.37-.26,5.02-.09.87-1.31,1.53-2.76,1.53Zm-568.25-15.36c-1.53,0-2.77-.73-2.77-1.63v-13.03c0-.9,1.24-1.63,2.77-1.63s2.76.73,2.76,1.63v13.03c0,.9-1.24,1.63-2.76,1.63Zm568.51-10.7c-1.53,0-2.77-.73-2.77-1.63v-13.03c0-.9,1.24-1.63,2.77-1.63s2.77.73,2.77,1.63v13.03c0,.9-1.24,1.63-2.77,1.63Zm-568.51-15.36c-1.53,0-2.77-.73-2.77-1.63v-13.03c0-.9,1.24-1.63,2.77-1.63s2.76.73,2.76,1.63v13.03c0,.9-1.24,1.63-2.76,1.63Zm568.51-10.7c-1.53,0-2.77-.73-2.77-1.63v-13.03c0-.9,1.24-1.63,2.77-1.63s2.77.73,2.77,1.63v13.03c0,.9-1.24,1.63-2.77,1.63Zm-568.51-15.36c-1.53,0-2.77-.73-2.77-1.63v-13.03c0-.9,1.24-1.63,2.77-1.63s2.76.73,2.76,1.63v13.03c0,.9-1.24,1.63-2.76,1.63Zm568.51-10.7c-1.53,0-2.77-.73-2.77-1.63v-13.03c0-.9,1.24-1.63,2.77-1.63s2.77.73,2.77,1.63v13.03c0,.9-1.24,1.63-2.77,1.63Zm-568.51-15.36c-1.53,0-2.77-.73-2.77-1.63v-13.03c0-.9,1.24-1.63,2.77-1.63s2.76.73,2.76,1.63v13.03c0,.9-1.24,1.63-2.76,1.63Zm568.51-10.7c-1.53,0-2.77-.73-2.77-1.63v-13.03c0-.9,1.24-1.63,2.77-1.63s2.77.73,2.77,1.63v13.03c0,.9-1.24,1.63-2.77,1.63Zm-568.51-15.36c-1.53,0-2.77-.73-2.77-1.63v-13.03c0-.9,1.24-1.63,2.77-1.63s2.76.73,2.76,1.63v13.03c0,.9-1.24,1.63-2.76,1.63Zm568.51-10.7c-1.53,0-2.77-.73-2.77-1.63v-13.03c0-.9,1.24-1.63,2.77-1.63s2.77.73,2.77,1.63v13.03c0,.9-1.24,1.63-2.77,1.63Zm-568.51-15.36c-1.53,0-2.77-.73-2.77-1.63v-13.03c0-.9,1.24-1.63,2.77-1.63s2.76.73,2.76,1.63v13.03c0,.9-1.24,1.63-2.76,1.63Zm568.51-10.7c-1.53,0-2.77-.73-2.77-1.63v-13.03c0-.9,1.24-1.63,2.77-1.63s2.77.73,2.77,1.63v13.03c0,.9-1.24,1.63-2.77,1.63ZM52.88,118.66c-1.53,0-2.77-.73-2.77-1.63v-8.02c0-1.7.09-3.42.27-5.11.1-.9,1.33-1.6,2.94-1.53,1.52.06,2.68.83,2.58,1.73-.17,1.62-.26,3.27-.26,4.9v8.02c0,.9-1.24,1.63-2.76,1.63Zm568.43-10.7c-1.48,0-2.71-.7-2.76-1.58-.24-4.25-1.09-8.51-2.52-12.65-.3-.88.66-1.75,2.16-1.93,1.48-.18,2.96.39,3.26,1.28,1.49,4.32,2.37,8.76,2.62,13.19.05.9-1.14,1.66-2.67,1.69-.03,0-.06,0-.1,0ZM56.38,92.76c-.21,0-.42-.01-.63-.04-1.49-.21-2.41-1.09-2.06-1.96,1.71-4.31,4.06-8.56,6.98-12.64.59-.83,2.22-1.22,3.62-.87,1.41.35,2.07,1.31,1.47,2.14-2.79,3.91-5.04,7.99-6.69,12.12-.3.75-1.44,1.26-2.69,1.26Zm556.18-10.21c-1.11,0-2.16-.4-2.58-1.04-2.59-3.95-5.76-7.8-9.44-11.45-.78-.77-.35-1.78.96-2.24,1.31-.46,3.01-.21,3.79.57,3.83,3.8,7.15,7.82,9.85,11.94.55.84-.16,1.79-1.58,2.11-.33.07-.66.11-1,.11Zm-539.11-13.69c-.51,0-1.02-.08-1.48-.25-1.29-.49-1.67-1.49-.85-2.26,4.02-3.73,8.61-7.29,13.63-10.58,1.02-.67,2.77-.72,3.91-.12,1.13.6,1.22,1.64.2,2.31-4.81,3.15-9.21,6.56-13.07,10.14-.53.49-1.42.76-2.33.76Zm516.66-8.59c-.79,0-1.56-.2-2.11-.58-4.65-3.24-9.79-6.26-15.28-9-1.17-.58-1.32-1.61-.33-2.3.98-.69,2.73-.78,3.9-.2,5.73,2.85,11.09,6.01,15.94,9.38.99.69.85,1.72-.32,2.3-.52.26-1.16.39-1.79.39Zm-487.24-10.68c-.82,0-1.62-.21-2.17-.62-.95-.71-.75-1.73.45-2.3,5.88-2.75,12.18-5.23,18.73-7.36,1.33-.44,3.02-.15,3.76.64.74.79.25,1.78-1.09,2.22-6.28,2.04-12.32,4.42-17.96,7.06-.51.24-1.12.35-1.72.35Zm453.65-6.05c-.48,0-.96-.07-1.41-.23-6.19-2.16-12.73-4.03-19.43-5.54-1.43-.32-2.14-1.27-1.59-2.11.55-.84,2.15-1.27,3.57-.94,6.99,1.58,13.81,3.53,20.27,5.78,1.31.46,1.75,1.46.97,2.24-.51.52-1.44.8-2.38.8Zm-415.2-6.46c-1.14,0-2.21-.42-2.61-1.09-.51-.85.26-1.78,1.7-2.08,7.07-1.46,14.4-2.57,21.79-3.31,1.51-.14,2.93.45,3.19,1.34.25.89-.76,1.73-2.27,1.88-7.09.71-14.12,1.77-20.89,3.17-.3.06-.61.09-.91.09Zm374.17-2.81c-.18,0-.36,0-.55-.03-7.02-.83-14.23-1.31-21.44-1.44-1.53-.03-2.73-.78-2.68-1.68.05-.9,1.32-1.63,2.85-1.58,7.51.13,15.03.64,22.35,1.5,1.5.18,2.47,1.04,2.17,1.92-.26.78-1.42,1.31-2.71,1.31Zm-43.97-1.51h-22.07c-1.53,0-2.76-.73-2.76-1.63s1.24-1.63,2.76-1.63h22.07c1.53,0,2.76.73,2.76,1.63s-1.24,1.63-2.76,1.63Zm-44.14,0h-22.07c-1.53,0-2.77-.73-2.77-1.63s1.24-1.63,2.77-1.63h22.07c1.53,0,2.77.73,2.77,1.63s-1.24,1.63-2.77,1.63Zm-44.14,0h-22.07c-1.53,0-2.76-.73-2.76-1.63s1.24-1.63,2.76-1.63h22.07c1.53,0,2.77.73,2.77,1.63s-1.24,1.63-2.77,1.63Zm-44.14,0h-22.07c-1.53,0-2.77-.73-2.77-1.63s1.24-1.63,2.77-1.63h22.07c1.53,0,2.76.73,2.76,1.63s-1.24,1.63-2.76,1.63Zm-44.14,0h-22.07c-1.53,0-2.77-.73-2.77-1.63s1.24-1.63,2.77-1.63h22.07c1.53,0,2.77.73,2.77,1.63s-1.24,1.63-2.77,1.63Zm-44.14,0h-22.07c-1.53,0-2.77-.73-2.77-1.63s1.24-1.63,2.77-1.63h22.07c1.53,0,2.76.73,2.76,1.63s-1.24,1.63-2.76,1.63Zm-44.14,0h-21.92c-1.53,0-2.84-.73-2.84-1.63s1.16-1.63,2.69-1.63h22.07c1.53,0,2.77.73,2.77,1.63s-1.24,1.63-2.77,1.63Z"/>
        <path class="cls-6" d="m467.64,338.96H210.98c-75.49,0-136.69-33.42-136.69-74.64v-135.77c0-41.22,61.2-74.64,136.69-74.64h256.66c75.49,0,136.69,33.42,136.69,74.64v135.77c0,41.23-61.2,74.64-136.69,74.64Z"/>
        <g>
          <g>
            <path class="cls-19" d="m100.69,117.55c0,27.81-22.54,50.35-50.35,50.35S0,145.35,0,117.55s22.54-50.35,50.35-50.35,50.35,22.54,50.35,50.35Z"/>
            <g>
              <path class="cls-12" d="m18.28,102.21h5.31v14.36h-5.31c-2.18,0-3.94-1.77-3.94-3.94v-6.47c0-2.18,1.77-3.94,3.94-3.94Z"/>
              <path class="cls-12" d="m80.04,102.21h5.31v14.36h-5.31c-2.18,0-3.94-1.77-3.94-3.94v-6.47c0-2.18,1.77-3.94,3.94-3.94Z" transform="translate(161.45 218.77) rotate(180)"/>
              <rect class="cls-11" x="41.94" y="129.08" width="16.24" height="18.56"/>
              <path class="cls-7" d="m80.72,109.11c0,23.35-13.73,23.35-30.66,23.35s-30.66-.7-30.66-23.35c0-24.75,13.73-30.66,30.66-30.66s30.66,4.57,30.66,30.66Z"/>
              <path class="cls-7" d="m84.33,154.69c-8.95,8.18-20.89,13.2-33.98,13.2s-25.39-5.16-34.38-13.56c0-16.22,14.27-15.61,25.97-17.76,2.62-.49,5.33-.75,8.12-.75s5.51.25,8.12.75c11.85,2.17,26.14,2.54,26.14,18.12Z"/>
              <path class="cls-11" d="m72.85,107.55c0,9.56-10.2.92-22.78.92s-22.78,8.08-22.78-.92c0-10.56,1.89-19.13,22.78-19.13s22.78,8.56,22.78,19.13Z"/>
              <g>
                <circle class="cls-14" cx="39.38" cy="102.48" r="2.81"/>
                <path class="cls-14" d="m63.57,102.48c0,1.55-1.26,2.81-2.81,2.81s-2.81-1.26-2.81-2.81,1.26-2.81,2.81-2.81,2.81,1.26,2.81,2.81Z"/>
              </g>
              <line class="cls-4" x1="50.06" y1="66.04" x2="50.06" y2="78.5"/>
              <circle class="cls-14" cx="50.06" cy="66.04" r="3.94"/>
              <path class="cls-11" d="m67.84,147.52c0,1.54-1.25,2.79-2.79,2.79s-2.79-1.25-2.79-2.79,1.25-2.79,2.79-2.79,2.79,1.25,2.79,2.79Z"/>
              <path class="cls-11" d="m58.62,147.52c0,.77-.62,1.39-1.39,1.39s-1.39-.62-1.39-1.39.62-1.39,1.39-1.39,1.39.62,1.39,1.39Z"/>
            </g>
          </g>
          <g>
            <path class="cls-9" d="m239.05,131.75h-107.77c-2.36,0-4.27-1.91-4.27-4.27v-34.93l-8.8-5.6h120.84c2.36,0,4.27,1.91,4.27,4.27v36.27c0,2.36-1.91,4.27-4.27,4.27Z"/>
            <rect class="cls-9" x="127.18" y="139.32" width="65.77" height="22.4" rx="4.27" ry="4.27"/>
            <rect class="cls-9" x="127.18" y="169.29" width="112.99" height="22.4" rx="4.27" ry="4.27"/>
            <path class="cls-7" d="m230.27,100.23h-90.98c-.6,0-1.09-.49-1.09-1.09s.49-1.09,1.09-1.09h90.98c.6,0,1.09.49,1.09,1.09s-.49,1.09-1.09,1.09Z"/>
            <path class="cls-7" d="m230.27,110.76h-90.98c-.6,0-1.09-.49-1.09-1.09s.49-1.09,1.09-1.09h90.98c.6,0,1.09.49,1.09,1.09s-.49,1.09-1.09,1.09Z"/>
            <path class="cls-7" d="m230.27,121.29h-90.98c-.6,0-1.09-.49-1.09-1.09s.49-1.09,1.09-1.09h90.98c.6,0,1.09.49,1.09,1.09s-.49,1.09-1.09,1.09Z"/>
            <path class="cls-7" d="m230.27,181.58h-90.98c-.6,0-1.09-.49-1.09-1.09s.49-1.09,1.09-1.09h90.98c.6,0,1.09.49,1.09,1.09s-.49,1.09-1.09,1.09Z"/>
            <path class="cls-7" d="m172.54,152.95h-34.43c-.6,0-1.09-.49-1.09-1.09s.49-1.09,1.09-1.09h34.43c.6,0,1.09.49,1.09,1.09s-.49,1.09-1.09,1.09Z"/>
          </g>
        </g>
        <g>
          <circle class="cls-16" cx="606.52" cy="302.94" r="50.55"/>
          <path class="cls-8" d="m639.78,327.04c3.43-1.7,5.05-5.26,3.1-9.82-2.9-6.76-2.89-12.66-2.61-15.61.35-1.95.53-3.96.53-6.02,0-18.85-15.28-34.13-34.12-34.13s-34.13,15.28-34.13,34.13c0,1.36.08,2.7.24,4.03.07.61.16,1.22.26,1.82.62,3.6-.08,7.75-1.02,11.22-1.42,5.25-4.41,9.33.77,13.66,2.01,1.67,4.72,2.48,7.31,2.17,4.31-.52,8.26-.94,12.61-.18,4.8.84,9.59,2.61,14.5,1.43,2.6-.63,5.02-1.86,7.62-2.48,7.91-1.86,17.5,3.44,24.93-.23Z"/>
          <path class="cls-13" d="m604.12,323.56h10.38v12.67c0,2.87-2.32,5.19-5.19,5.19h0c-2.87,0-5.19-2.32-5.19-5.19v-12.67Z"/>
          <path class="cls-24" d="m604.12,323.56h10.38v12.67c0,2.87-2.32,5.19-5.19,5.19h0c-2.87,0-5.19-2.32-5.19-5.19v-12.67Z"/>
          <path class="cls-13" d="m635.52,295.01c0,16.5-13.38,29.88-29.88,29.88s-29.88-13.38-29.88-29.88,13.38-29.88,29.88-29.88,29.88,13.38,29.88,29.88Z"/>
          <path class="cls-6" d="m616.14,332.52c-.89-.19-1.39-1.13-1.07-1.98l.52-1.41c.4-1.13-.44-2.32-1.64-2.32h-9.28c-1.2,0-2.04,1.18-1.64,2.32l.5,1.42c.31.86-.22,1.78-1.12,1.97-8.1,1.73-15.17,6.62-20.14,14.79,7.2,3.94,15.45,6.18,24.23,6.18,10.43,0,20.12-3.16,28.17-8.57-4.84-6.72-11.28-10.84-18.54-12.39Z"/>
          <path class="cls-23" d="m592.3,292.64v11.58h-5.29c-.97,0-1.55-1.08-1.02-1.89l6.32-9.69Z"/>
          <path class="cls-7" d="m599.34,311.67c2.75,0,4.99-2.23,4.99-4.99h-9.97c0,2.75,2.23,4.99,4.99,4.99Z"/>
          <path class="cls-15" d="m605.11,293.94c0,.9-.73,1.63-1.63,1.63s-1.63-.73-1.63-1.63.73-1.63,1.63-1.63,1.63.73,1.63,1.63Z"/>
          <path class="cls-15" d="m584.92,293.94c0,.9-.73,1.63-1.63,1.63s-1.64-.73-1.64-1.63.73-1.63,1.64-1.63,1.63.73,1.63,1.63Z"/>
          <path class="cls-8" d="m578.98,289.13c-.18,0-.36-.07-.5-.21-.27-.28-.27-.72,0-1,1.31-1.29,3.01-2,4.8-2s3.49.71,4.8,2c.28.27.28.72,0,1-.27.28-.72.28-1,0-1.05-1.03-2.4-1.6-3.81-1.6s-2.76.57-3.81,1.6c-.14.13-.32.2-.49.2Z"/>
          <path class="cls-8" d="m599.17,289.13c-.18,0-.36-.07-.5-.21-.27-.28-.27-.72,0-1,1.31-1.29,3.01-2,4.8-2s3.49.71,4.8,2c.28.27.28.72,0,1-.27.28-.72.28-.99,0-1.05-1.03-2.4-1.6-3.81-1.6s-2.76.57-3.81,1.6c-.14.13-.32.2-.49.2Z"/>
          <path class="cls-8" d="m620.15,268.39v54.37c9.67-5.21,16.24-15.43,16.24-27.19s-6.57-21.97-16.24-27.19Z"/>
          <path class="cls-13" d="m625.03,291.06c-.29,0-.58.02-.87.06v14.61c.28.03.57.05.87.05,4.07,0,7.36-3.3,7.36-7.36s-3.29-7.36-7.36-7.36Z"/>
          <path class="cls-8" d="m623.39,292.27s-27.95-5.36-33.32-20.92c-5.37-15.56,16.75-15.45,33.44-8.13,16.69,7.32,34.75,35.49-.12,29.05Z"/>
          <path class="cls-22" d="m637.78,292.64s3.29-1.21,4.8-3.34c0,0,1.66.42.75,2.5,0,0-2.17,2.51-6.1,2.51,0,0-.31-1.3.54-1.67Z"/>
          <polyline class="cls-2" points="602.42 332.52 608.48 341.42 616.14 332.52"/>
          <path class="cls-22" d="m609.93,341.35c0,.8-.65,1.45-1.45,1.45s-1.45-.65-1.45-1.45.65-1.45,1.45-1.45,1.45.65,1.45,1.45Z"/>
          <line class="cls-3" x1="604.2" y1="293.15" x2="608.02" y2="293.15"/>
          <line class="cls-3" x1="579.73" y1="293.15" x2="583.56" y2="293.15"/>
        </g>
        <g>
          <g>
            <path class="cls-10" d="m426.4,283.24h107.77c2.36,0,4.27-1.91,4.27-4.27v-34.93l8.8-5.6h-120.84c-2.36,0-4.27,1.91-4.27,4.27v36.27c0,2.36,1.91,4.27,4.27,4.27Z"/>
            <rect class="cls-10" x="472.49" y="290.81" width="65.77" height="22.4" rx="4.27" ry="4.27"/>
          </g>
          <path class="cls-17" d="m525.56,252.13h-90.98c-.6,0-1.09-.49-1.09-1.09s.49-1.09,1.09-1.09h90.98c.6,0,1.09.49,1.09,1.09s-.49,1.09-1.09,1.09Z"/>
          <path class="cls-17" d="m525.56,262.66h-90.98c-.6,0-1.09-.49-1.09-1.09s.49-1.09,1.09-1.09h90.98c.6,0,1.09.49,1.09,1.09s-.49,1.09-1.09,1.09Z"/>
          <path class="cls-17" d="m525.56,273.18h-90.98c-.6,0-1.09-.49-1.09-1.09s.49-1.09,1.09-1.09h90.98c.6,0,1.09.49,1.09,1.09s-.49,1.09-1.09,1.09Z"/>
          <path class="cls-17" d="m523.67,303.1h-34.43c-.6,0-1.09-.49-1.09-1.09s.49-1.09,1.09-1.09h34.43c.6,0,1.09.49,1.09,1.09s-.49,1.09-1.09,1.09Z"/>
        </g>
        <path class="cls-21" d="m296.51,183.51c-3.17,0-5.75-2.58-5.75-5.75s2.58-5.75,5.75-5.75,5.75,2.58,5.75,5.75-2.58,5.75-5.75,5.75Zm0-8.23c-1.37,0-2.48,1.11-2.48,2.48s1.11,2.48,2.48,2.48,2.48-1.11,2.48-2.48-1.11-2.48-2.48-2.48Z"/>
        <path class="cls-21" d="m118.21,240.43c-3.17,0-5.75-2.58-5.75-5.75s2.58-5.75,5.75-5.75,5.75,2.58,5.75,5.75-2.58,5.75-5.75,5.75Zm0-8.23c-1.37,0-2.48,1.11-2.48,2.48s1.11,2.48,2.48,2.48,2.48-1.11,2.48-2.48-1.11-2.48-2.48-2.48Z"/>
        <path class="cls-21" d="m29.71,365.87c-3.17,0-5.75-2.58-5.75-5.75s2.58-5.75,5.75-5.75,5.75,2.58,5.75,5.75-2.58,5.75-5.75,5.75Zm0-8.23c-1.37,0-2.48,1.11-2.48,2.48s1.11,2.48,2.48,2.48,2.48-1.11,2.48-2.48-1.11-2.48-2.48-2.48Z"/>
        <path class="cls-7" d="m317.27,142.88c-2.63,0-4.77-2.14-4.77-4.77s2.14-4.77,4.77-4.77,4.77,2.14,4.77,4.77-2.14,4.77-4.77,4.77Zm0-6.27c-.83,0-1.5.67-1.5,1.5s.67,1.5,1.5,1.5,1.5-.67,1.5-1.5-.67-1.5-1.5-1.5Z"/>
        <path class="cls-7" d="m142.42,268.56c-2.63,0-4.77-2.14-4.77-4.77s2.14-4.77,4.77-4.77,4.77,2.14,4.77,4.77-2.14,4.77-4.77,4.77Zm0-6.27c-.83,0-1.5.67-1.5,1.5s.67,1.5,1.5,1.5,1.5-.67,1.5-1.5-.67-1.5-1.5-1.5Z"/>
        <path class="cls-7" d="m364.39,9.54c-2.63,0-4.77-2.14-4.77-4.77s2.14-4.77,4.77-4.77,4.77,2.14,4.77,4.77-2.14,4.77-4.77,4.77Zm0-6.27c-.83,0-1.5.67-1.5,1.5s.67,1.5,1.5,1.5,1.5-.67,1.5-1.5-.67-1.5-1.5-1.5Z"/>
        <path class="cls-7" d="m417.36,46.67c-2.63,0-4.77-2.14-4.77-4.77s2.14-4.77,4.77-4.77,4.77,2.14,4.77,4.77-2.14,4.77-4.77,4.77Zm0-6.27c-.83,0-1.5.67-1.5,1.5s.67,1.5,1.5,1.5,1.5-.67,1.5-1.5-.67-1.5-1.5-1.5Z"/>
        <path class="cls-7" d="m58.19,389.93c-2.63,0-4.77-2.14-4.77-4.77s2.14-4.77,4.77-4.77,4.77,2.14,4.77,4.77-2.14,4.77-4.77,4.77Zm0-6.27c-.83,0-1.5.67-1.5,1.5s.67,1.5,1.5,1.5,1.5-.67,1.5-1.5-.67-1.5-1.5-1.5Z"/>
        <circle class="cls-21" cx="318.3" cy="96.3" r="2.29"/>
        <path class="cls-21" d="m195.24,315.26c0,1.26-1.02,2.29-2.29,2.29s-2.29-1.02-2.29-2.29,1.02-2.29,2.29-2.29,2.29,1.02,2.29,2.29Z"/>
        <path class="cls-21" d="m392.57,16.47c0,1.26-1.02,2.29-2.29,2.29s-2.29-1.02-2.29-2.29,1.02-2.29,2.29-2.29,2.29,1.02,2.29,2.29Z"/>
        <path class="cls-21" d="m412.48,133.59c0,1.26-1.02,2.29-2.29,2.29s-2.29-1.02-2.29-2.29,1.02-2.29,2.29-2.29,2.29,1.02,2.29,2.29Z"/>
        <path class="cls-21" d="m34.48,244.59c0,1.26-1.02,2.29-2.29,2.29s-2.29-1.02-2.29-2.29,1.02-2.29,2.29-2.29,2.29,1.02,2.29,2.29Z"/>
        <path class="cls-21" d="m280.46,141.25c0,1.26-1.02,2.29-2.29,2.29s-2.29-1.02-2.29-2.29,1.02-2.29,2.29-2.29,2.29,1.02,2.29,2.29Z"/>
        <path class="cls-21" d="m120.5,268.82c0,1.26-1.02,2.29-2.29,2.29s-2.29-1.02-2.29-2.29,1.02-2.29,2.29-2.29,2.29,1.02,2.29,2.29Z"/>
        <g class="cls-5">
          <path class="cls-20" d="m643.16,114.61c-.9,0-1.63-.73-1.63-1.63,0-51.23-41.68-92.91-92.91-92.91-.9,0-1.63-.73-1.63-1.63s.73-1.63,1.63-1.63c53.03,0,96.17,43.15,96.17,96.18,0,.9-.73,1.63-1.63,1.63Z"/>
          <path class="cls-20" d="m643.16,115.29l-10.02-10.02c-.64-.64-.64-1.67,0-2.31s1.67-.64,2.31,0l7.71,7.71,7.36-7.36c.64-.64,1.67-.64,2.31,0,.64.64.64,1.67,0,2.31l-9.67,9.67Z"/>
        </g>
        <g class="cls-5">
          <path class="cls-20" d="m127.11,381.68c-53.03,0-96.18-43.15-96.18-96.18,0-.9.73-1.63,1.63-1.63s1.63.73,1.63,1.63c0,51.23,41.68,92.91,92.91,92.91.9,0,1.63.73,1.63,1.63s-.73,1.63-1.63,1.63Z"/>
          <path class="cls-20" d="m41.43,296.01c-.42,0-.84-.16-1.16-.48l-7.71-7.71-7.36,7.36c-.64.64-1.67.64-2.31,0-.64-.64-.64-1.67,0-2.31l9.67-9.67,10.02,10.02c.64.64.64,1.67,0,2.31-.32.32-.74.48-1.15.48Z"/>
        </g>
      </g>
    </g>
  </g>
</svg>